<svg width="33" height="33" viewBox="0 0 33 33" fill="none" xmlns="http://www.w3.org/2000/svg">
<path d="M8.55413 28.4456C8.7907 28.5049 8.94654 28.6312 8.98174 28.6531C10.9532 29.8798 13.1488 30.6991 15.4197 30.9108C23.451 31.6596 30.4347 25.8671 31.1835 17.8359C31.9323 9.80459 26.1197 2.83763 18.1069 2.09053C10.0941 1.34343 3.09189 7.13419 2.34307 15.1655C2.13133 17.4364 2.53059 19.7456 3.3717 21.9099C3.55585 22.1319 3.51798 22.5381 3.47839 22.9627L3.44051 23.3689L1.64749 29.217C3.7197 28.9632 5.80866 28.7297 7.88087 28.4759C8.05392 28.4176 8.28063 28.3828 8.53567 28.4439L8.55413 28.4456Z" fill="#00ADD4" stroke="white" stroke-width="1.85428" stroke-miterlimit="10"/>
<path d="M15.8594 26.5099L10.6914 10.8145L16.29 8.97103C17.141 8.69083 17.98 8.65067 18.807 8.85056C19.6415 9.048 20.3785 9.4391 21.0178 10.0239C21.6571 10.6087 22.1183 11.3308 22.4013 12.1903C22.6917 13.0722 22.746 13.9408 22.5643 14.7959C22.3875 15.6411 22.0221 16.3911 21.4682 17.0457C20.9117 17.6928 20.223 18.1515 19.4019 18.4219L16.5354 19.3657L18.5915 25.6103L15.8594 26.5099ZM15.6347 16.6303L18.21 15.7823C18.5982 15.6545 18.9208 15.4406 19.1778 15.1405C19.4348 14.8405 19.6025 14.4954 19.6808 14.1051C19.7666 13.7123 19.743 13.3141 19.6102 12.9105C19.4748 12.4995 19.2559 12.1614 18.9536 11.8965C18.6587 11.6291 18.3187 11.4511 17.9338 11.3624C17.5488 11.2738 17.1622 11.2934 16.7741 11.4212L14.1987 12.2692L15.6347 16.6303Z" fill="white"/>
</svg>
